<?xml version="1.0" encoding="utf-8"?>
<svg width="512px" height="512px" viewBox="0 0 512 512" fill="none" xmlns="http://www.w3.org/2000/svg">
  <defs>
    <filter id="filter0_d" x="13.608" y="6.75394" width="40.7644" height="55.1219" filterUnits="userSpaceOnUse" color-interpolation-filters="sRGB">
      <feFlood flood-opacity="0" result="BackgroundImageFix"/>
      <feColorMatrix in="SourceAlpha" type="matrix" values="0 0 0 0 0 0 0 0 0 0 0 0 0 0 0 0 0 0 127 0"/>
      <feOffset/>
      <feGaussianBlur stdDeviation="2"/>
      <feColorMatrix type="matrix" values="0 0 0 0 1 0 0 0 0 0.866667 0 0 0 0 0.533333 0 0 0 0.3 0"/>
      <feBlend mode="normal" in2="BackgroundImageFix" result="effect1_dropShadow"/>
      <feBlend mode="normal" in="SourceGraphic" in2="effect1_dropShadow" result="shape"/>
    </filter>
  </defs>
  <g style="" transform="matrix(7.703203, 0, 0, 7.703203, -1533.067871, -1953.885254)">
    <g style="" transform="matrix(1.271382, 0, 0, 1.271382, -63.028519, -77.853828)">
      <path opacity="0.6" d="M 228.354 277.4 C 229.624 277.4 230.258 277.932 230.258 278.996 C 230.258 280.041 229.624 280.564 228.354 280.564 L 219.282 280.564 C 218.722 280.564 218.265 280.387 217.91 280.032 C 217.556 279.677 217.378 279.257 217.378 278.772 C 217.378 278.212 217.574 277.727 217.966 277.316 L 224.518 269.98 L 219.142 269.98 C 217.873 269.98 217.238 269.457 217.238 268.412 C 217.238 267.348 217.873 266.816 219.142 266.816 L 227.878 266.816 C 228.457 266.816 228.914 266.993 229.25 267.348 C 229.605 267.703 229.782 268.132 229.782 268.636 C 229.782 269.196 229.586 269.681 229.194 270.092 L 222.67 277.4 L 228.354 277.4 Z" style="fill: rgb(255, 255, 255);"/>
      <path opacity="0.4" d="M 217.373 291.172 C 218.461 291.172 219.005 291.628 219.005 292.54 C 219.005 293.436 218.461 293.884 217.373 293.884 L 209.597 293.884 C 209.117 293.884 208.725 293.732 208.421 293.428 C 208.117 293.124 207.965 292.764 207.965 292.348 C 207.965 291.868 208.133 291.452 208.469 291.1 L 214.085 284.812 L 209.477 284.812 C 208.389 284.812 207.845 284.364 207.845 283.468 C 207.845 282.556 208.389 282.1 209.477 282.1 L 216.965 282.1 C 217.461 282.1 217.853 282.252 218.141 282.556 C 218.445 282.86 218.597 283.228 218.597 283.66 C 218.597 284.14 218.429 284.556 218.093 284.908 L 212.501 291.172 L 217.373 291.172 Z" style="fill: rgb(255, 255, 255);"/>
      <path opacity="0.2" d="M 225.557 304.125 C 226.464 304.125 226.917 304.505 226.917 305.265 C 226.917 306.011 226.464 306.385 225.557 306.385 L 219.077 306.385 C 218.677 306.385 218.35 306.258 218.097 306.005 C 217.844 305.751 217.717 305.451 217.717 305.105 C 217.717 304.705 217.857 304.358 218.137 304.065 L 222.817 298.825 L 218.977 298.825 C 218.07 298.825 217.617 298.451 217.617 297.705 C 217.617 296.945 218.07 296.565 218.977 296.565 L 225.217 296.565 C 225.63 296.565 225.957 296.691 226.197 296.945 C 226.45 297.198 226.577 297.505 226.577 297.865 C 226.577 298.265 226.437 298.611 226.157 298.905 L 221.497 304.125 L 225.557 304.125 Z" style="fill: rgb(255, 255, 255);"/>
    </g>
    <g filter="url(#filter0_d)" transform="matrix(1.271382, 0, 0, 1.271382, 199.235291, 243.25148)" style="">
      <path d="M50.0711 56.189C50.5301 56.0068 50.4421 55.3429 49.9597 55.2372C41.3073 53.3415 33.8445 46.4794 31.2491 36.9083C28.6536 27.3372 31.6274 17.645 38.1368 11.6378C38.4997 11.3029 38.2402 10.6855 37.752 10.7601C36.869 10.8951 35.9845 11.0812 35.1018 11.3206C22.4756 14.7445 15.0156 27.7557 18.4395 40.3819C21.8634 53.0081 34.8747 60.4681 47.5009 57.0442C48.3835 56.8049 49.2409 56.5187 50.0711 56.189Z" fill="#FFDD88"/>
    </g>
  </g>
</svg>